# Blender v2.78 (sub 0) OBJ File: ''
# www.blender.org
mtllib cart.mtl
o Cube
v 1.000000 -0.693290 -2.245011
v 1.000000 -0.693290 2.245011
v -1.000000 -0.693290 2.245011
v -1.000000 -0.693290 -2.245012
v 1.000000 0.693290 -2.245010
v 0.999999 0.693290 2.245013
v -1.000000 0.693290 2.245010
v -1.000000 0.693290 -2.245011
v 1.000000 -0.693290 -2.095343
v 1.000000 -0.693290 2.095344
v -1.000000 -0.693290 2.095342
v -1.000000 -0.693290 -2.095346
v 1.000000 0.693290 -2.095340
v 1.000000 0.693290 2.095347
v -1.000000 0.693290 2.095342
v -1.000000 0.693290 -2.095344
v 0.866667 -0.693290 -2.245011
v -0.866666 -0.693290 -2.245012
v 0.866667 -0.693290 2.245011
v -0.866667 -0.693290 2.245011
v 0.866667 0.693290 -2.245010
v -0.866666 0.693290 -2.245011
v 0.866665 0.693290 2.245012
v -0.866668 0.693290 2.245011
v -0.866667 0.693290 -2.095343
v 0.866667 0.693290 -2.095342
v -0.866667 0.693290 2.095344
v 0.866666 0.693290 2.095345
v 0.866667 -0.693290 -2.095344
v -0.866666 -0.693290 -2.095345
v 0.866667 -0.693290 2.095343
v -0.866666 -0.693290 2.095342
v 0.866667 -0.693290 -2.245011
v -0.866666 -0.693290 -2.245012
v 0.866667 -0.693290 2.245011
v -0.866667 -0.693290 2.245011
v 0.866667 0.693290 -2.245010
v -0.866666 0.693290 -2.245011
v 0.866665 0.693290 2.245012
v -0.866668 0.693290 2.245011
v -0.866667 0.693290 -2.095343
v 0.866667 0.693290 -2.095342
v -0.866667 0.693290 2.095344
v 0.866666 0.693290 2.095345
v 0.866667 -0.693290 -2.095344
v -0.866666 -0.693290 -2.095345
v 0.866667 -0.693290 2.095343
v -0.866666 -0.693290 2.095342
v 0.866667 -0.693290 -2.245011
v -0.866666 -0.693290 -2.245012
v 0.866667 -0.693290 2.245011
v -0.866667 -0.693290 2.245011
v 0.866667 0.693290 -2.245010
v -0.866666 0.693290 -2.245011
v 0.866665 0.693290 2.245012
v -0.866668 0.693290 2.245011
v -0.866667 0.693290 -2.095343
v 0.866667 0.693290 -2.095342
v -0.866667 0.693290 2.095344
v 0.866666 0.693290 2.095345
v 0.866667 -0.693290 -2.095344
v -0.866666 -0.693290 -2.095345
v 0.866667 -0.693290 2.095343
v -0.866666 -0.693290 2.095342
v -0.866667 0.693290 -2.095343
v -0.866667 0.693290 2.095344
v -0.866667 0.693290 -2.095343
v 0.866667 0.693290 -2.095342
v -0.866667 0.693290 2.095344
v 0.866666 0.693290 2.095345
v -0.866667 -0.469881 -2.095343
v 0.866667 -0.469881 -2.095342
v -0.866667 -0.469881 2.095344
v 0.866666 -0.469881 2.095345
vn 0.0000 -1.0000 -0.0000
vn 0.0000 1.0000 0.0000
vn 1.0000 0.0000 0.0000
vn -0.0000 0.0000 1.0000
vn -1.0000 -0.0000 -0.0000
vn 0.0000 0.0000 -1.0000
usemtl Material
s off
f 32//1 20//1 3//1 11//1
f 27//2 15//2 7//2 24//2
f 10//3 14//3 6//3 2//3
f 20//4 24//4 7//4 3//4
f 12//5 16//5 8//5 4//5
f 22//6 18//6 4//6 8//6
f 3//5 7//5 15//5 11//5
f 11//5 15//5 16//5 12//5
f 1//3 5//3 13//3 9//3
f 9//3 13//3 14//3 10//3
f 22//2 8//2 16//2 25//2
f 25//2 16//2 15//2 27//2
f 18//1 30//1 12//1 4//1
f 30//1 32//1 11//1 12//1
f 9//1 10//1 31//1 29//1
f 29//1 31//1 32//1 30//1
f 1//1 9//1 29//1 17//1
f 17//1 29//1 30//1 18//1
f 13//2 26//2 28//2 14//2
f 25//4 27//4 69//4 67//4
f 5//2 21//2 26//2 13//2
f 21//2 22//2 25//2 26//2
f 5//6 1//6 17//6 21//6
f 21//6 17//6 18//6 22//6
f 2//4 6//4 23//4 19//4
f 19//4 23//4 24//4 20//4
f 14//2 28//2 23//2 6//2
f 28//2 27//2 24//2 23//2
f 10//1 2//1 19//1 31//1
f 31//1 19//1 20//1 32//1
f 24//4 27//4 43//4 40//4
f 26//4 21//4 37//4 42//4
f 31//4 19//4 35//4 47//4
f 25//4 22//4 38//4 41//4
f 29//4 31//4 47//4 45//4
f 32//4 20//4 36//4 48//4
f 21//4 17//4 33//4 37//4
f 30//4 32//4 48//4 46//4
f 22//4 18//4 34//4 38//4
f 17//4 29//4 45//4 33//4
f 19//4 23//4 39//4 35//4
f 18//4 30//4 46//4 34//4
f 20//4 24//4 40//4 36//4
f 28//4 26//4 42//4 44//4
f 23//4 28//4 44//4 39//4
f 27//4 25//4 41//4 43//4
f 47//4 35//4 51//4 63//4
f 41//4 38//4 54//4 57//4
f 45//4 47//4 63//4 61//4
f 48//4 36//4 52//4 64//4
f 37//4 33//4 49//4 53//4
f 46//4 48//4 64//4 62//4
f 38//4 34//4 50//4 54//4
f 33//4 45//4 61//4 49//4
f 35//4 39//4 55//4 51//4
f 34//4 46//4 62//4 50//4
f 36//4 40//4 56//4 52//4
f 44//4 42//4 58//4 60//4
f 39//4 44//4 60//4 55//4
f 43//4 41//4 57//4 59//4
f 40//4 43//4 59//4 56//4
f 42//4 37//4 53//4 58//4
f 59//4 57//4 65//4 66//4
f 69//6 70//6 74//6 73//6
f 27//4 28//4 70//4 69//4
f 26//4 25//4 67//4 68//4
f 28//4 26//4 68//4 70//4
f 72//2 71//2 73//2 74//2
f 70//5 68//5 72//5 74//5
f 68//4 67//4 71//4 72//4
f 67//3 69//3 73//3 71//3
